<svg width="54" height="54" viewBox="0 0 54 54" fill="none" xmlns="http://www.w3.org/2000/svg">
<circle cx="27" cy="27" r="27" fill="#64BFD3"/>
<path fill-rule="evenodd" clip-rule="evenodd" d="M10.7999 26.9875C10.8075 18.0399 18.0649 10.7925 27.0125 10.8C35.955 10.8075 43.1999 18.0574 43.1999 27C43.1861 35.9464 35.9338 43.1925 26.9874 43.2C18.0398 43.1925 10.7924 35.9351 10.7999 26.9875ZM13.4834 27C13.4834 34.458 19.5295 40.5042 26.9876 40.5042C34.4456 40.5042 40.4917 34.458 40.4917 27C40.4842 19.5445 34.443 13.5034 26.9876 13.4959C19.5295 13.4959 13.4834 19.542 13.4834 27Z" fill="white"/>
<path fill-rule="evenodd" clip-rule="evenodd" d="M31.9316 25.8603C33.0508 25.2556 33.6557 24.0449 33.4472 22.8305C33.1881 20.9555 30.8566 20.2476 29.0172 20.0987V17.28H27.2038V20.0739H25.9862V17.28H24.1728V20.0739H20.52V21.8744H21.88C22.4888 21.8744 22.7868 22.0482 22.7868 22.5201V30.2561C22.7868 30.9018 22.45 31.1005 22.0873 31.1005H20.7013V32.9383H24.2246V35.7943H26.0509V32.9383H27.2685V35.7943H29.0431V32.9383H29.4317C33.1622 32.9383 34.4057 31.1874 34.4057 28.8033C34.3759 27.3976 33.3591 26.1881 31.9316 25.8603ZM25.9861 21.9861H27.2814C28.1881 21.9861 29.9756 22.1352 29.9756 23.5507C30.0378 24.4746 29.3396 25.2842 28.3824 25.4009H25.9861V21.9861ZM27.9938 30.9142V30.9266C29.9368 30.9266 30.9082 30.1443 30.9082 28.7536C30.9082 27.3628 28.8617 27.189 28.3176 27.189H25.9861V30.9142H27.9938Z" fill="white"/>
</svg>
