<svg id="Layer_1" data-name="Layer 1" xmlns="http://www.w3.org/2000/svg" viewBox="0 0 1280 354.89"><defs><style>.cls-1{fill:#082543;}.cls-2{fill:#38c2d6;}</style></defs><path class="cls-1" d="M523.05,191q9.3,12.18,9.31,30,0,25.2-19.57,38.74T455.71,273.3H356.6V81.67h93.63q35,0,53.8,13.41t18.75,36.41a46,46,0,0,1-25.46,42.16Q513.75,178.86,523.05,191Zm-122.37-76v45.17h44.07q16.44,0,24.92-5.75t8.48-17q0-11.22-8.48-16.84t-24.92-5.61Zm78.16,119.09q8.9-5.76,8.9-17.8,0-23.82-35.32-23.82H400.68V239.9h51.74Q469.94,239.9,478.84,234.16Z"/><path class="cls-1" d="M912.14,237.71v11.7a23.9,23.9,0,0,1-23.9,23.89H763.76V81.67H908.58v11.6a24,24,0,0,1-24,24H807.83v41.61h89v16.28a20.48,20.48,0,0,1-20.48,20.48h-68.5v42.08Z"/><path class="cls-1" d="M1088.51,237.71v11.7a23.9,23.9,0,0,1-23.9,23.89H940.13V81.67H1085v11.6a24,24,0,0,1-24,24H984.2v41.61h89v16.28a20.47,20.47,0,0,1-20.47,20.48H984.2v42.08Z"/><path class="cls-1" d="M1174.33,117.77h-39.19A22.15,22.15,0,0,1,1113,95.63v-14h167V93.77a24,24,0,0,1-24,24h-37.32V239.41a33.85,33.85,0,0,1-33.85,33.85h-10.5Z"/><path class="cls-1" d="M689.94,189.17c12.24-7.18,20.33-12.7,26.92-22.09a65.31,65.31,0,0,0,6.64-13.2c2-6.67,2.18-14,1.69-20.9-.21-1.93-.88-7.48-1.34-9.33a.1.1,0,0,0,0-.14c-4.52-23.71-27.67-41.77-55.57-41.77h4.21c-1.51-.11-3.08-.15-4.64-.2a.28.28,0,0,0-.18,0c-6.72-.13-13.89.2-21.51.2H563.19V273.38H580a27.59,27.59,0,0,0,27.58-27.58V195.12h40.79l27.51,61.36c5.15,11.63,17.13,16.9,30,16.9h27.09Zm-23.49-29h0a72.21,72.21,0,0,1-14.3,1.74c-2.74.11-5.57.13-8.44.13H607.54V117.88h36.13c3.21,0,6.38-.09,9.43-.16.71,0,1.43-.07,2.15-.07.37,0,.73,0,1.09,0h.34c14.68.61,26.33,10.32,26.33,22.2C683,148.94,676.2,156.75,666.45,160.19Z"/><path class="cls-1" d="M139,177.44,56.26,260.18,18.71,222.67a64,64,0,0,1,0-90.45L56.26,94.71Z"/><path class="cls-1" d="M188.47,317.38,151,354.89,68.22,272.15,151,189.41l37.51,37.51A64,64,0,0,1,188.47,317.38Z"/><path class="cls-1" d="M188.47,128,151,165.48,68.22,82.74,151,0l37.51,37.51A64,64,0,0,1,188.47,128Z"/><circle class="cls-2" cx="246.74" cy="177.44" r="58.69"/></svg>