<svg width="16" height="16" viewBox="0 0 16 16" fill="none" xmlns="http://www.w3.org/2000/svg">
<path fill-rule="evenodd" clip-rule="evenodd" d="M8 14C11.3137 14 14 11.3137 14 8C14 4.68629 11.3137 2 8 2C4.68629 2 2 4.68629 2 8C2 11.3137 4.68629 14 8 14ZM8.21769 9.3021H7.40136V9.26769C7.41156 8.17495 7.80952 7.84226 8.47619 7.50096C8.87415 7.29732 9.18367 6.97036 9.18367 6.51434C9.18367 5.9522 8.66667 5.59656 8.02721 5.59656C7.46939 5.59656 6.90816 5.87189 6.85714 6.54876H6C6.05102 5.57361 6.92517 5 8.02721 5C9.22449 5 10 5.65392 10 6.54876C10 7.1826 9.64626 7.62428 9.04762 7.93117C8.44898 8.24665 8.23129 8.55641 8.21769 9.26769V9.3021ZM8.44898 10.4837C8.44898 10.7677 8.17347 11 7.83673 11C7.5 11 7.22449 10.7677 7.22449 10.4837C7.22449 10.1998 7.5 9.9675 7.83673 9.9675C8.17347 9.9675 8.44898 10.1998 8.44898 10.4837Z" fill="#A4B6E1"/>
</svg>
