<svg width="32" height="32" viewBox="0 0 32 32" fill="none" xmlns="http://www.w3.org/2000/svg">
<rect opacity="0.08" width="32" height="32" rx="10" fill="#64BFD3"/>
<path fill-rule="evenodd" clip-rule="evenodd" d="M19.6844 8.83334H12.3156C11.8647 8.83333 11.501 8.83333 11.205 8.85353C10.9006 8.87429 10.6315 8.91808 10.3766 9.02364C9.76403 9.27737 9.27735 9.76406 9.02361 10.3766C8.91805 10.6315 8.87427 10.9006 8.8535 11.205C8.83331 11.501 8.83331 11.8647 8.83331 12.3156V19.6844C8.83331 20.1353 8.83331 20.499 8.8535 20.795C8.87427 21.0994 8.91805 21.3685 9.02361 21.6234C9.27735 22.2359 9.76403 22.7226 10.3766 22.9764C10.6315 23.0819 10.9006 23.1257 11.205 23.1465C11.501 23.1667 11.8647 23.1667 12.3156 23.1667H19.6844C20.1353 23.1667 20.499 23.1667 20.795 23.1465C21.0994 23.1257 21.3685 23.0819 21.6234 22.9764C22.2359 22.7226 22.7226 22.2359 22.9763 21.6234C23.0819 21.3685 23.1257 21.0994 23.1465 20.795C23.1667 20.499 23.1667 20.1353 23.1666 19.6844V12.3156C23.1667 11.8647 23.1667 11.501 23.1465 11.205C23.1257 10.9006 23.0819 10.6315 22.9763 10.3766C22.7226 9.76406 22.2359 9.27737 21.6234 9.02364C21.3685 8.91808 21.0994 8.87429 20.795 8.85353C20.499 8.83333 20.1353 8.83333 19.6844 8.83334ZM20.3226 13.618C20.5336 13.7961 20.5602 14.1116 20.382 14.3226L18.3601 16.717C18.2667 16.8275 18.1811 16.929 18.1033 17.0092C18.0199 17.0952 17.9207 17.1837 17.792 17.2497C17.5141 17.392 17.1907 17.417 16.8943 17.3192C16.7569 17.2738 16.6452 17.2016 16.5496 17.1294C16.4605 17.0621 16.3602 16.9751 16.251 16.8802L15.4793 16.2101C15.3714 16.1163 15.3079 16.0615 15.2579 16.0234C15.2269 15.9998 15.2123 15.9915 15.2085 15.9895C15.1717 15.9761 15.1313 15.9761 15.0945 15.9895C15.0907 15.9915 15.0761 15.9998 15.0451 16.0234C14.9951 16.0615 14.9316 16.1163 14.8237 16.2101L12.3278 18.3775C12.1193 18.5586 11.8035 18.5363 11.6225 18.3278C11.4414 18.1193 11.4636 17.8035 11.6721 17.6225L14.168 15.455C14.1819 15.4429 14.1959 15.4307 14.21 15.4184C14.3716 15.2773 14.5423 15.1283 14.7432 15.0532C15.0065 14.9549 15.2965 14.9549 15.5598 15.0532C15.7607 15.1283 15.9314 15.2773 16.093 15.4184C16.1071 15.4307 16.1211 15.4429 16.135 15.455L16.8956 16.1156C17.0196 16.2232 17.0937 16.2872 17.152 16.3312C17.1882 16.3585 17.2054 16.368 17.21 16.3703C17.251 16.3832 17.2955 16.3798 17.334 16.3607C17.3382 16.3577 17.3538 16.3457 17.3853 16.3132C17.4362 16.2607 17.4996 16.186 17.6055 16.0606L19.618 13.6774C19.7961 13.4664 20.1116 13.4398 20.3226 13.618ZM15.0956 15.989C15.0956 15.989 15.095 15.9893 15.0945 15.9895L15.0956 15.989ZM15.2074 15.989C15.2074 15.9889 15.208 15.9893 15.2085 15.9895L15.2074 15.989Z" fill="#A4B6E1"/>
</svg>
