<svg width="32" height="32" viewBox="0 0 32 32" fill="none" xmlns="http://www.w3.org/2000/svg">
<rect opacity="0.08" width="32" height="32" rx="10" fill="#64BFD3"/>
<path d="M13.1915 10.51C14.4982 9.84155 16.0005 9.66108 17.4283 10.001C18.4757 10.2504 19.4327 10.7679 20.2099 11.4939L19.0653 12.1547C18.9043 12.2477 18.8081 12.4224 18.8158 12.6083C18.8234 12.7941 18.9336 12.9604 19.1018 13.0398L21.8518 14.3388C22.0001 14.4089 22.1733 14.4018 22.3153 14.3198C22.4574 14.2378 22.5502 14.0913 22.5636 13.9278L22.8136 10.8968C22.8289 10.7114 22.7401 10.5328 22.5829 10.4333C22.4258 10.3337 22.2264 10.3296 22.0653 10.4226L21.1094 10.9746C20.1702 10.0196 18.9765 9.3417 17.6599 9.02822C16.0005 8.63315 14.2547 8.84288 12.7361 9.61972C11.2175 10.3966 10.0258 11.6896 9.37517 13.2663C8.72452 14.8431 8.65761 16.6003 9.18646 18.222C9.71531 19.8436 10.8052 21.2235 12.2603 22.1136C13.7154 23.0037 15.4403 23.3456 17.1249 23.0778C18.8095 22.8101 20.3434 21.9503 21.4508 20.6529C22.5583 19.3556 23.1666 17.7058 23.1666 16C23.1666 15.7239 22.9428 15.5 22.6666 15.5C22.3905 15.5 22.1666 15.7239 22.1666 16C22.1666 17.4677 21.6431 18.8874 20.6902 20.0037C19.7373 21.12 18.4175 21.8599 16.9679 22.0902C15.5184 22.3206 14.0342 22.0264 12.7821 21.2606C11.5301 20.4947 10.5922 19.3073 10.1372 17.9119C9.68213 16.5165 9.7397 15.0045 10.2996 13.6478C10.8594 12.291 11.8848 11.1784 13.1915 10.51Z" fill="#A4B6E1"/>
<path d="M16 12.1667C16.2761 12.1667 16.5 12.3905 16.5 12.6667V15.7929L19.0202 18.3131C19.2155 18.5084 19.2155 18.825 19.0202 19.0202C18.8249 19.2155 18.5084 19.2155 18.3131 19.0202L15.6464 16.3536C15.5985 16.3056 15.5623 16.2504 15.5379 16.1914C15.5135 16.1324 15.5 16.0678 15.5 16V12.6667C15.5 12.3905 15.7238 12.1667 16 12.1667Z" fill="#A4B6E1"/>
</svg>
