<svg width="32" height="32" viewBox="0 0 32 32" fill="none" xmlns="http://www.w3.org/2000/svg">
<rect opacity="0.08" width="32" height="32" rx="10" fill="#64BFD3"/>
<path fill-rule="evenodd" clip-rule="evenodd" d="M17.6593 8.88136C17.417 8.83317 17.1667 8.83323 16.8048 8.83332L13.6489 8.83333C13.1981 8.83332 12.8343 8.83332 12.5383 8.85352C12.234 8.87428 11.9648 8.91807 11.71 9.02363C11.0974 9.27736 10.6107 9.76405 10.357 10.3766C10.2514 10.6315 10.2076 10.9006 10.1869 11.205C10.1667 11.501 10.1667 11.8647 10.1667 12.3156V19.6844C10.1667 20.1353 10.1667 20.499 10.1869 20.795C10.2076 21.0994 10.2514 21.3685 10.357 21.6234C10.6107 22.2359 11.0974 22.7226 11.71 22.9764C11.9648 23.0819 12.234 23.1257 12.5383 23.1465C12.8343 23.1667 13.198 23.1667 13.6489 23.1667H18.3511C18.802 23.1667 19.1657 23.1667 19.4617 23.1465C19.7661 23.1257 20.0352 23.0819 20.2901 22.9764C20.9026 22.7226 21.3893 22.2359 21.6431 21.6234C21.7486 21.3685 21.7924 21.0994 21.8132 20.795C21.8334 20.499 21.8334 20.1353 21.8334 19.6844L21.8334 13.8618C21.8334 13.5 21.8335 13.2496 21.7853 13.0074C21.7213 12.6854 21.5944 12.3791 21.412 12.1062C21.2748 11.9008 21.0977 11.7238 20.8418 11.468L19.1987 9.82487C18.9429 9.56893 18.7659 9.39189 18.5605 9.25465C18.2875 9.07226 17.9813 8.94541 17.6593 8.88136ZM12.8334 13.3333C12.8334 13.0572 13.0572 12.8333 13.3334 12.8333H16C16.2762 12.8333 16.5 13.0572 16.5 13.3333C16.5 13.6095 16.2762 13.8333 16 13.8333H13.3334C13.0572 13.8333 12.8334 13.6095 12.8334 13.3333ZM12.8334 16C12.8334 15.7239 13.0572 15.5 13.3334 15.5H18.6667C18.9428 15.5 19.1667 15.7239 19.1667 16C19.1667 16.2761 18.9428 16.5 18.6667 16.5H13.3334C13.0572 16.5 12.8334 16.2761 12.8334 16ZM12.8334 18.6667C12.8334 18.3905 13.0572 18.1667 13.3334 18.1667H18.6667C18.9428 18.1667 19.1667 18.3905 19.1667 18.6667C19.1667 18.9428 18.9428 19.1667 18.6667 19.1667H13.3334C13.0572 19.1667 12.8334 18.9428 12.8334 18.6667Z" fill="#A4B6E1"/>
</svg>
