<svg width="32" height="32" viewBox="0 0 32 32" fill="none" xmlns="http://www.w3.org/2000/svg">
<rect opacity="1" width="32" height="32" rx="10" fill="#64BFD3"/>
<path d="M12 9.5C10.6193 9.5 9.5 10.6193 9.5 12C9.5 13.3807 10.6193 14.5 12 14.5C13.3807 14.5 14.5 13.3807 14.5 12C14.5 10.6193 13.3807 9.5 12 9.5Z" fill="#fff"/>
<path d="M12 17.5C10.6193 17.5 9.5 18.6193 9.5 20C9.5 21.3807 10.6193 22.5 12 22.5C13.3807 22.5 14.5 21.3807 14.5 20C14.5 18.6193 13.3807 17.5 12 17.5Z" fill="#fff"/>
<path d="M20 9.5C18.6193 9.5 17.5 10.6193 17.5 12C17.5 13.3807 18.6193 14.5 20 14.5C21.3807 14.5 22.5 13.3807 22.5 12C22.5 10.6193 21.3807 9.5 20 9.5Z" fill="#fff"/>
<path d="M20 17.5C18.6193 17.5 17.5 18.6193 17.5 20C17.5 21.3807 18.6193 22.5 20 22.5C21.3807 22.5 22.5 21.3807 22.5 20C22.5 18.6193 21.3807 17.5 20 17.5Z" fill="#fff"/>
</svg>
