<svg width="54" height="54" viewBox="0 0 54 54" fill="none" xmlns="http://www.w3.org/2000/svg">
<circle cx="27" cy="27" r="27" fill="#64BFD3"/>
<path fill-rule="evenodd" clip-rule="evenodd" d="M43.4634 27.445C43.4634 36.7684 36.0774 44.3533 27 44.3533C17.9225 44.3533 10.5366 36.7684 10.5366 27.445C10.5366 18.1215 17.9225 10.5366 27 10.5366C36.0774 10.5366 43.4634 18.1215 43.4634 27.445ZM40.7197 27.445C40.7197 19.6757 34.565 13.3547 27.0002 13.3547C19.4354 13.3547 13.2807 19.6757 13.2807 27.445C13.2807 35.2142 19.4354 41.5353 27.0002 41.5353C34.565 41.5353 40.7197 35.2142 40.7197 27.445Z" fill="white"/>
<path d="M20.9948 32.4718H32.7844V29.7239H25.1937L26.38 26.976H31.4001V24.2281H27.5669L29.0648 20.759L26.5199 19.6762L24.5546 24.2281H20.3256V26.976H23.3677L20.9948 32.4718Z" fill="white"/>
</svg>
