<svg width="32" height="32" viewBox="0 0 32 32" fill="none" xmlns="http://www.w3.org/2000/svg">
<rect opacity="1" width="32" height="32" rx="10" fill="#64BFD3"/>
<path fill-rule="evenodd" clip-rule="evenodd" d="M16 22C19.3137 22 22 19.3137 22 16C22 12.6863 19.3137 10 16 10C12.6863 10 10 12.6863 10 16C10 19.3137 12.6863 22 16 22ZM16.2177 17.3021H15.4014V17.2677C15.4116 16.175 15.8095 15.8423 16.4762 15.501C16.8741 15.2973 17.1837 14.9704 17.1837 14.5143C17.1837 13.9522 16.6667 13.5966 16.0272 13.5966C15.4694 13.5966 14.9082 13.8719 14.8571 14.5488H14C14.051 13.5736 14.9252 13 16.0272 13C17.2245 13 18 13.6539 18 14.5488C18 15.1826 17.6463 15.6243 17.0476 15.9312C16.449 16.2467 16.2313 16.5564 16.2177 17.2677V17.3021ZM16.449 18.4837C16.449 18.7677 16.1735 19 15.8367 19C15.5 19 15.2245 18.7677 15.2245 18.4837C15.2245 18.1998 15.5 17.9675 15.8367 17.9675C16.1735 17.9675 16.449 18.1998 16.449 18.4837Z" fill="#fff"/>
</svg>
