<svg width="48" height="48" viewBox="0 0 48 48" fill="none" xmlns="http://www.w3.org/2000/svg">
<rect opacity="0.1" x="6.10352e-05" y="8" width="40" height="40" rx="16" fill="#FF710B"/>
<mask id="mask0_1_1684" style="mask-type:alpha" maskUnits="userSpaceOnUse" x="0" y="8" width="40" height="40">
<rect y="8" width="40" height="40" rx="16" fill="#C4C4C4"/>
</mask>
<g mask="url(#mask0_1_1684)">
<rect opacity="0.2" x="26" y="4" width="22" height="22" rx="11" fill="#170A38"/>
</g>
<path d="M7.70725 30.0583L9.12138 19.8765C9.1938 19.3551 9.65943 18.9776 10.1832 19.0301C20.8072 20.0947 27.7983 26.0624 30.24 29.2572C30.3854 29.4475 30.4485 29.6864 30.4268 29.9249L29.6274 38.7183C29.5507 39.5627 28.5142 39.9436 27.8788 39.3823C20.7944 33.1244 12.9052 31.379 8.75741 31.2529C8.12692 31.2338 7.62047 30.6831 7.70725 30.0583Z" fill="#FF710B"/>
<path opacity="0.6" d="M11.6452 23.7395L11.3031 26.8184C12.5562 27.1949 12.9676 28.5878 13.0166 29.2372C18.9516 29.6121 24.8529 34.3153 26.2846 35.8177C27.4195 34.6238 28.6238 34.6242 28.6238 34.6242L28.9361 31.1371C27.681 30.1599 28.1721 29.2372 28.1721 29.2372C24.3405 25.6793 17.575 22.8272 15.0662 22.3711C13.6978 23.7395 12.2154 23.8535 11.6452 23.7395Z" fill="white"/>
<ellipse cx="21.2647" cy="28.409" rx="1.72115" ry="2.34884" transform="rotate(14.8224 21.2647 28.409)" fill="#FF710B"/>
<rect x="26.0001" width="22" height="22" rx="11" fill="#170A38"/>
<path d="M34.8001 15.95L37.3917 13.2996C37.5817 13.1053 37.5817 12.7948 37.3917 12.6005L36.2419 11.4246C36.0519 11.2303 36.0519 10.9198 36.2419 10.7255L39.2001 7.70003" stroke="white" stroke-linecap="round"/>
<path d="M40.06 10.2795L40.06 7.04021C40.06 6.92975 39.9704 6.84021 39.86 6.84021L36.6207 6.84021" stroke="white" stroke-linecap="round"/>
</svg>
