<svg width="32" height="32" viewBox="0 0 32 32" fill="none" xmlns="http://www.w3.org/2000/svg">
<rect opacity="0.08" width="32" height="32" rx="10" fill="#64BFD3"/>
<path fill-rule="evenodd" clip-rule="evenodd" d="M18.138 10.6115C17.4927 8.50265 14.5073 8.50265 13.862 10.6115C13.6721 11.232 13.0348 11.6 12.4025 11.4542C10.2535 10.9586 8.76079 13.544 10.2645 15.1573C10.7069 15.632 10.7069 16.368 10.2645 16.8426C8.76079 18.4559 10.2535 21.0414 12.4025 20.5458C13.0348 20.4 13.6721 20.768 13.862 21.3884C14.5073 23.4973 17.4927 23.4973 18.138 21.3884C18.3279 20.768 18.9653 20.4 19.5976 20.5458C21.7465 21.0414 23.2392 18.4559 21.7356 16.8426C21.2932 16.368 21.2932 15.632 21.7356 15.1573C23.2392 13.544 21.7465 10.9586 19.5976 11.4542C18.9653 11.6 18.3279 11.232 18.138 10.6115ZM16 14.5C15.1716 14.5 14.5 15.1716 14.5 16C14.5 16.8284 15.1716 17.5 16 17.5C16.8284 17.5 17.5 16.8284 17.5 16C17.5 15.1716 16.8284 14.5 16 14.5ZM13.5 16C13.5 14.6193 14.6193 13.5 16 13.5C17.3807 13.5 18.5 14.6193 18.5 16C18.5 17.3807 17.3807 18.5 16 18.5C14.6193 18.5 13.5 17.3807 13.5 16Z" fill="#A4B6E1"/>
</svg>
