<svg width="12" height="12" viewBox="0 0 12 12" fill="none" xmlns="http://www.w3.org/2000/svg">
<path fill-rule="evenodd" clip-rule="evenodd" d="M6 12C9.31371 12 12 9.31371 12 6C12 2.68629 9.31371 0 6 0C2.68629 0 0 2.68629 0 6C0 9.31371 2.68629 12 6 12ZM6.21769 7.3021H5.40136V7.26769C5.41156 6.17495 5.80952 5.84226 6.47619 5.50096C6.87415 5.29732 7.18367 4.97036 7.18367 4.51434C7.18367 3.9522 6.66667 3.59656 6.02721 3.59656C5.46939 3.59656 4.90816 3.87189 4.85714 4.54876H4C4.05102 3.57361 4.92517 3 6.02721 3C7.22449 3 8 3.65392 8 4.54876C8 5.1826 7.64626 5.62428 7.04762 5.93117C6.44898 6.24665 6.23129 6.55641 6.21769 7.26769V7.3021ZM6.44898 8.48375C6.44898 8.76769 6.17347 9 5.83673 9C5.5 9 5.22449 8.76769 5.22449 8.48375C5.22449 8.19981 5.5 7.9675 5.83673 7.9675C6.17347 7.9675 6.44898 8.19981 6.44898 8.48375Z" fill="#A4B6E1"/>
</svg>
