<svg width="146" height="30" viewBox="0 0 146 30" fill="none" xmlns="http://www.w3.org/2000/svg">
<path fill-rule="evenodd" clip-rule="evenodd" d="M13.2552 0C8.83689 0 5.25517 3.58172 5.25517 8V10.6135L0.453058 13.7508C-0.128596 14.1308 -0.155002 14.9736 0.401718 15.3893L5.25517 19.0132V22C5.25517 26.4183 8.83689 30 13.2552 30H137.255C141.673 30 145.255 26.4183 145.255 22V8C145.255 3.58172 141.673 0 137.255 0H13.2552Z" fill="#170A38"/>
<path d="M44.068 19.12C42.996 19.12 42.18 18.832 41.62 18.256C41.068 17.68 40.772 16.884 40.732 15.868C40.724 15.652 40.72 15.3 40.72 14.812C40.72 14.316 40.724 13.956 40.732 13.732C40.772 12.724 41.072 11.932 41.632 11.356C42.192 10.772 43.004 10.48 44.068 10.48C44.78 10.48 45.384 10.608 45.88 10.864C46.376 11.112 46.752 11.44 47.008 11.848C47.264 12.256 47.404 12.692 47.428 13.156V13.18C47.428 13.244 47.4 13.3 47.344 13.348C47.296 13.388 47.24 13.408 47.176 13.408H46.516C46.356 13.408 46.256 13.316 46.216 13.132C46.08 12.532 45.836 12.112 45.484 11.872C45.132 11.624 44.66 11.5 44.068 11.5C42.692 11.5 41.98 12.264 41.932 13.792C41.924 14.008 41.92 14.34 41.92 14.788C41.92 15.236 41.924 15.576 41.932 15.808C41.98 17.336 42.692 18.1 44.068 18.1C44.66 18.1 45.132 17.98 45.484 17.74C45.844 17.492 46.088 17.068 46.216 16.468C46.24 16.364 46.276 16.292 46.324 16.252C46.372 16.212 46.436 16.192 46.516 16.192H47.176C47.248 16.192 47.308 16.216 47.356 16.264C47.412 16.304 47.436 16.36 47.428 16.432C47.404 16.904 47.264 17.344 47.008 17.752C46.752 18.16 46.376 18.492 45.88 18.748C45.384 18.996 44.78 19.12 44.068 19.12ZM49.1682 19C49.0882 19 49.0202 18.976 48.9642 18.928C48.9162 18.872 48.8922 18.804 48.8922 18.724V10.756C48.8922 10.676 48.9162 10.612 48.9642 10.564C49.0202 10.508 49.0882 10.48 49.1682 10.48H49.7322C49.8122 10.48 49.8762 10.508 49.9242 10.564C49.9802 10.612 50.0082 10.676 50.0082 10.756V18.724C50.0082 18.804 49.9802 18.872 49.9242 18.928C49.8762 18.976 49.8122 19 49.7322 19H49.1682ZM51.9782 11.596C51.8982 11.596 51.8302 11.572 51.7742 11.524C51.7262 11.468 51.7022 11.4 51.7022 11.32V10.672C51.7022 10.592 51.7262 10.524 51.7742 10.468C51.8302 10.412 51.8982 10.384 51.9782 10.384H52.7342C52.8142 10.384 52.8822 10.412 52.9382 10.468C52.9942 10.524 53.0222 10.592 53.0222 10.672V11.32C53.0222 11.4 52.9942 11.468 52.9382 11.524C52.8822 11.572 52.8142 11.596 52.7342 11.596H51.9782ZM52.0742 19C51.9942 19 51.9262 18.976 51.8702 18.928C51.8222 18.872 51.7982 18.804 51.7982 18.724V13.036C51.7982 12.956 51.8222 12.892 51.8702 12.844C51.9262 12.788 51.9942 12.76 52.0742 12.76H52.6502C52.7302 12.76 52.7942 12.788 52.8422 12.844C52.8982 12.892 52.9262 12.956 52.9262 13.036V18.724C52.9262 18.804 52.8982 18.872 52.8422 18.928C52.7942 18.976 52.7302 19 52.6502 19H52.0742ZM57.2244 19.12C56.3684 19.12 55.6964 18.88 55.2084 18.4C54.7284 17.912 54.4724 17.232 54.4404 16.36L54.4284 15.88L54.4404 15.4C54.4724 14.528 54.7284 13.852 55.2084 13.372C55.6964 12.884 56.3684 12.64 57.2244 12.64C57.8004 12.64 58.2884 12.744 58.6884 12.952C59.0884 13.16 59.3844 13.416 59.5764 13.72C59.7764 14.024 59.8844 14.328 59.9004 14.632C59.9084 14.712 59.8844 14.776 59.8284 14.824C59.7724 14.872 59.7044 14.896 59.6244 14.896H59.0484C58.9684 14.896 58.9084 14.88 58.8684 14.848C58.8284 14.816 58.7884 14.752 58.7484 14.656C58.6124 14.272 58.4204 14 58.1724 13.84C57.9244 13.672 57.6124 13.588 57.2364 13.588C56.7404 13.588 56.3444 13.744 56.0484 14.056C55.7604 14.36 55.6044 14.828 55.5804 15.46L55.5684 15.892L55.5804 16.3C55.6044 16.94 55.7604 17.412 56.0484 17.716C56.3364 18.02 56.7324 18.172 57.2364 18.172C57.6124 18.172 57.9244 18.092 58.1724 17.932C58.4204 17.764 58.6124 17.488 58.7484 17.104C58.7884 17.008 58.8284 16.944 58.8684 16.912C58.9084 16.872 58.9684 16.852 59.0484 16.852H59.6244C59.7044 16.852 59.7724 16.88 59.8284 16.936C59.8844 16.984 59.9084 17.048 59.9004 17.128C59.8844 17.424 59.7764 17.728 59.5764 18.04C59.3844 18.344 59.0884 18.6 58.6884 18.808C58.2964 19.016 57.8084 19.12 57.2244 19.12ZM61.6135 19C61.5335 19 61.4655 18.976 61.4095 18.928C61.3615 18.872 61.3375 18.804 61.3375 18.724V10.756C61.3375 10.676 61.3615 10.612 61.4095 10.564C61.4655 10.508 61.5335 10.48 61.6135 10.48H62.1775C62.2575 10.48 62.3215 10.508 62.3695 10.564C62.4255 10.612 62.4535 10.676 62.4535 10.756V14.932L64.8175 12.964C64.8415 12.948 64.8815 12.916 64.9375 12.868C64.9935 12.828 65.0455 12.8 65.0935 12.784C65.1495 12.768 65.2175 12.76 65.2975 12.76H65.9335C66.0055 12.76 66.0655 12.784 66.1135 12.832C66.1615 12.88 66.1855 12.94 66.1855 13.012C66.1855 13.1 66.1375 13.176 66.0415 13.24L63.2695 15.544L66.3415 18.532C66.4375 18.612 66.4855 18.684 66.4855 18.748C66.4855 18.82 66.4615 18.88 66.4135 18.928C66.3655 18.976 66.3055 19 66.2335 19H65.6095C65.4895 19 65.4015 18.988 65.3455 18.964C65.2975 18.94 65.2255 18.884 65.1295 18.796L62.4535 16.24V18.724C62.4535 18.804 62.4255 18.872 62.3695 18.928C62.3215 18.976 62.2575 19 62.1775 19H61.6135ZM72.5154 19C71.2514 19 70.6194 18.296 70.6194 16.888V13.72H69.6834C69.6034 13.72 69.5354 13.696 69.4794 13.648C69.4314 13.592 69.4074 13.524 69.4074 13.444V13.036C69.4074 12.956 69.4314 12.892 69.4794 12.844C69.5354 12.788 69.6034 12.76 69.6834 12.76H70.6194V10.756C70.6194 10.676 70.6434 10.612 70.6914 10.564C70.7474 10.508 70.8154 10.48 70.8954 10.48H71.4594C71.5394 10.48 71.6034 10.508 71.6514 10.564C71.7074 10.612 71.7354 10.676 71.7354 10.756V12.76H73.2234C73.3034 12.76 73.3674 12.788 73.4154 12.844C73.4714 12.892 73.4994 12.956 73.4994 13.036V13.444C73.4994 13.524 73.4714 13.592 73.4154 13.648C73.3674 13.696 73.3034 13.72 73.2234 13.72H71.7354V16.804C71.7354 17.204 71.8034 17.508 71.9394 17.716C72.0754 17.916 72.2994 18.016 72.6114 18.016H73.3434C73.4234 18.016 73.4874 18.044 73.5354 18.1C73.5914 18.148 73.6194 18.212 73.6194 18.292V18.724C73.6194 18.804 73.5914 18.872 73.5354 18.928C73.4874 18.976 73.4234 19 73.3434 19H72.5154ZM77.3229 19.12C76.4429 19.12 75.7589 18.872 75.2709 18.376C74.7909 17.88 74.5349 17.22 74.5029 16.396L74.4909 15.88L74.5029 15.364C74.5349 14.548 74.7949 13.892 75.2829 13.396C75.7709 12.892 76.4509 12.64 77.3229 12.64C78.1949 12.64 78.8749 12.892 79.3629 13.396C79.8509 13.892 80.1109 14.548 80.1429 15.364C80.1509 15.452 80.1549 15.624 80.1549 15.88C80.1549 16.136 80.1509 16.308 80.1429 16.396C80.1109 17.22 79.8509 17.88 79.3629 18.376C78.8829 18.872 78.2029 19.12 77.3229 19.12ZM77.3229 18.196C77.8269 18.196 78.2229 18.036 78.5109 17.716C78.8069 17.396 78.9669 16.936 78.9909 16.336C78.9989 16.256 79.0029 16.104 79.0029 15.88C79.0029 15.656 78.9989 15.504 78.9909 15.424C78.9669 14.824 78.8069 14.364 78.5109 14.044C78.2229 13.724 77.8269 13.564 77.3229 13.564C76.8189 13.564 76.4189 13.724 76.1229 14.044C75.8269 14.364 75.6709 14.824 75.6549 15.424L75.6429 15.88L75.6549 16.336C75.6709 16.936 75.8269 17.396 76.1229 17.716C76.4189 18.036 76.8189 18.196 77.3229 18.196ZM87.4549 19.12C86.7909 19.12 86.2149 19.016 85.7269 18.808C85.2469 18.6 84.8789 18.328 84.6229 17.992C84.3669 17.648 84.2309 17.28 84.2149 16.888C84.2149 16.824 84.2389 16.768 84.2869 16.72C84.3429 16.664 84.4069 16.636 84.4789 16.636H85.0909C85.2429 16.636 85.3469 16.716 85.4029 16.876C85.4749 17.212 85.6789 17.5 86.0149 17.74C86.3589 17.98 86.8389 18.1 87.4549 18.1C88.1189 18.1 88.6189 17.984 88.9549 17.752C89.2909 17.512 89.4589 17.18 89.4589 16.756C89.4589 16.484 89.3749 16.264 89.2069 16.096C89.0469 15.928 88.8069 15.78 88.4869 15.652C88.1669 15.524 87.6869 15.364 87.0469 15.172C86.4229 14.996 85.9269 14.808 85.5589 14.608C85.1909 14.408 84.9149 14.16 84.7309 13.864C84.5469 13.568 84.4549 13.196 84.4549 12.748C84.4549 12.316 84.5709 11.928 84.8029 11.584C85.0429 11.24 85.3829 10.972 85.8229 10.78C86.2629 10.58 86.7869 10.48 87.3949 10.48C88.0189 10.48 88.5549 10.592 89.0029 10.816C89.4509 11.032 89.7909 11.308 90.0229 11.644C90.2549 11.98 90.3789 12.316 90.3949 12.652C90.3949 12.716 90.3709 12.772 90.3229 12.82C90.2829 12.868 90.2229 12.892 90.1429 12.892H89.5069C89.3389 12.892 89.2349 12.816 89.1949 12.664C89.1469 12.328 88.9589 12.052 88.6309 11.836C88.3029 11.612 87.8909 11.5 87.3949 11.5C86.8509 11.5 86.4229 11.604 86.1109 11.812C85.7989 12.02 85.6429 12.328 85.6429 12.736C85.6429 13.008 85.7149 13.232 85.8589 13.408C86.0109 13.584 86.2389 13.74 86.5429 13.876C86.8469 14.004 87.2909 14.152 87.8749 14.32C88.5549 14.504 89.0909 14.696 89.4829 14.896C89.8749 15.088 90.1669 15.332 90.3589 15.628C90.5509 15.916 90.6469 16.284 90.6469 16.732C90.6469 17.476 90.3589 18.06 89.7829 18.484C89.2069 18.908 88.4309 19.12 87.4549 19.12ZM93.8038 19.12C93.4118 19.12 93.0478 19.04 92.7118 18.88C92.3758 18.72 92.1078 18.504 91.9078 18.232C91.7158 17.952 91.6198 17.644 91.6198 17.308C91.6198 16.78 91.8358 16.348 92.2678 16.012C92.7078 15.668 93.2998 15.444 94.0438 15.34L95.8318 15.088V14.74C95.8318 13.924 95.3638 13.516 94.4278 13.516C94.0758 13.516 93.7878 13.592 93.5638 13.744C93.3398 13.888 93.1718 14.06 93.0598 14.26C93.0358 14.332 93.0038 14.384 92.9638 14.416C92.9318 14.448 92.8838 14.464 92.8198 14.464H92.3038C92.2318 14.464 92.1678 14.44 92.1118 14.392C92.0638 14.336 92.0398 14.272 92.0398 14.2C92.0478 14.008 92.1358 13.792 92.3038 13.552C92.4798 13.304 92.7478 13.092 93.1078 12.916C93.4678 12.732 93.9118 12.64 94.4398 12.64C95.3358 12.64 95.9798 12.852 96.3718 13.276C96.7638 13.692 96.9598 14.212 96.9598 14.836V18.724C96.9598 18.804 96.9318 18.872 96.8758 18.928C96.8278 18.976 96.7638 19 96.6838 19H96.1318C96.0518 19 95.9838 18.976 95.9278 18.928C95.8798 18.872 95.8558 18.804 95.8558 18.724V18.208C95.6798 18.464 95.4238 18.68 95.0878 18.856C94.7518 19.032 94.3238 19.12 93.8038 19.12ZM94.0558 18.22C94.5758 18.22 94.9998 18.052 95.3278 17.716C95.6638 17.372 95.8318 16.88 95.8318 16.24V15.904L94.4398 16.108C93.8718 16.188 93.4438 16.324 93.1558 16.516C92.8678 16.7 92.7238 16.936 92.7238 17.224C92.7238 17.544 92.8558 17.792 93.1198 17.968C93.3838 18.136 93.6958 18.22 94.0558 18.22ZM100.74 19C100.532 19 100.384 18.9 100.296 18.7L98.0757 13.132L98.0517 13.012C98.0517 12.94 98.0757 12.88 98.1237 12.832C98.1717 12.784 98.2317 12.76 98.3037 12.76H98.8797C99.0157 12.76 99.1157 12.828 99.1797 12.964L101.004 17.692L102.828 12.964C102.9 12.828 102.996 12.76 103.116 12.76H103.704C103.768 12.76 103.824 12.784 103.872 12.832C103.928 12.88 103.956 12.94 103.956 13.012L103.932 13.132L101.7 18.7C101.612 18.9 101.464 19 101.256 19H100.74ZM107.486 19.12C106.662 19.12 106.002 18.868 105.506 18.364C105.018 17.852 104.75 17.156 104.702 16.276L104.69 15.868L104.702 15.472C104.758 14.608 105.03 13.92 105.518 13.408C106.014 12.896 106.666 12.64 107.474 12.64C108.362 12.64 109.05 12.924 109.538 13.492C110.026 14.052 110.27 14.812 110.27 15.772V15.976C110.27 16.056 110.242 16.124 110.186 16.18C110.138 16.228 110.074 16.252 109.994 16.252H105.842V16.36C105.866 16.88 106.022 17.324 106.31 17.692C106.606 18.052 106.994 18.232 107.474 18.232C107.842 18.232 108.142 18.16 108.374 18.016C108.614 17.864 108.79 17.708 108.902 17.548C108.974 17.452 109.026 17.396 109.058 17.38C109.098 17.356 109.166 17.344 109.262 17.344H109.85C109.922 17.344 109.982 17.364 110.03 17.404C110.078 17.444 110.102 17.5 110.102 17.572C110.102 17.748 109.99 17.96 109.766 18.208C109.55 18.456 109.242 18.672 108.842 18.856C108.45 19.032 107.998 19.12 107.486 19.12ZM109.13 15.424V15.388C109.13 14.836 108.978 14.388 108.674 14.044C108.378 13.692 107.978 13.516 107.474 13.516C106.97 13.516 106.57 13.692 106.274 14.044C105.986 14.388 105.842 14.836 105.842 15.388V15.424H109.13Z" fill="white"/>
</svg>
